<?xml version="1.0" encoding="utf-8"?>
<!-- Generator: $$$/GeneralStr/196=Adobe Illustrator 27.6.0, SVG Export Plug-In . SVG Version: 6.00 Build 0)  -->
<svg version="1.1" id="Untitled-_x25_u9801_x25_u9762_x25_201"
	 xmlns="http://www.w3.org/2000/svg" xmlns:xlink="http://www.w3.org/1999/xlink" x="0px" y="0px" viewBox="0 0 100 100"
	 style="enable-background:new 0 0 100 100;" xml:space="preserve">
<style type="text/css">
	.st0{fill:none;}
	.st1{fill:none;stroke:#A394E5;stroke-width:2;}
</style>
<path class="st0" d="z"/>
<g>
	<g>
		<path class="st1" d="M36.8,60.8L32,82.1l10.8-3.9l8,8.3l3.5-15.4l0,0"/>
		<path class="st1" d="M48.3,77.4l1.7-7.3l0,0"/>
		<path class="st1" d="M40,67.1L38.2,75l0,0"/>
		<path class="st1" d="M74.6,33.1c-0.4-2-1.9-3.4-3.7-3.9c0.8-1.7,0.7-3.8-0.4-5.4c-1.1-1.6-2.9-2.3-4.7-2.1
			c0.1-1.8-0.8-3.6-2.4-4.6c-1.7-1.1-3.7-1-5.3,0c-0.6-1.8-2.1-3.2-4-3.5c-1.9-0.3-3.7,0.5-4.8,1.9c-1.2-1.3-3-1.9-4.9-1.5
			c-1.9,0.5-3.4,2-3.8,3.8c-1.6-0.8-3.7-0.7-5.3,0.4c-1.5,1.1-2.3,3-2.1,4.8c-1.8-0.1-3.5,0.8-4.5,2.4c-1.1,1.7-1,3.8,0,5.4
			c-1.7,0.6-3.1,2.1-3.4,4.1c-0.3,1.9,0.5,3.8,1.9,4.9c-1.3,1.2-1.9,3.1-1.5,5c0.4,2,1.9,3.4,3.7,3.9c-0.8,1.7-0.7,3.8,0.4,5.4
			c1.1,1.6,2.9,2.3,4.7,2.1c-0.1,1.8,0.8,3.6,2.4,4.6c1.7,1.1,3.7,1,5.3,0c0.6,1.8,2.1,3.2,4,3.5c1.9,0.3,3.7-0.5,4.8-1.9
			c1.2,1.3,3,1.9,4.9,1.5c1.9-0.5,3.4-2,3.8-3.8c1.6,0.8,3.7,0.7,5.3-0.4c1.5-1.1,2.3-3,2.1-4.8c1.8,0.1,3.5-0.8,4.5-2.4
			c1.1-1.7,1-3.8,0-5.4c1.7-0.6,3.1-2.1,3.4-4.1c0.3-1.9-0.5-3.8-1.9-4.9C74.4,36.8,75,35,74.6,33.1z M54,57.3
			c-9.9,2.3-19.8-4-22.1-14.1C29.6,33.1,35.8,23,45.8,20.7c9.9-2.3,19.8,4,22.1,14.1C70.2,44.9,64,55,54,57.3z"/>
		<path class="st1" d="M51.7,63.1l4.7,14l5-6.3l7.7,1.9l-4.3-12.9l0,0"/>
	</g>
</g>
<path class="st0" d="z"/>
</svg>
