<?xml version="1.0" encoding="utf-8"?>
<!-- Generator: $$$/GeneralStr/196=Adobe Illustrator 27.6.0, SVG Export Plug-In . SVG Version: 6.00 Build 0)  -->
<svg version="1.1" id="Untitled-_x25_u9801_x25_u9762_x25_201"
	 xmlns="http://www.w3.org/2000/svg" xmlns:xlink="http://www.w3.org/1999/xlink" x="0px" y="0px" viewBox="0 0 100 100"
	 style="enable-background:new 0 0 100 100;" xml:space="preserve">
<style type="text/css">
	.st0{fill:none;}
	.st1{fill:#A394E5;}
</style>
<path class="st0" d="z"/>
<g>
	<g>
		<path class="st1" d="M89.7,48.4l-13-23.1c-0.4-0.8-1.3-1.3-2.2-1.3c-0.4,0-0.9,0.1-1.3,0.4L68,27.6c-1.2,0.7-1.6,2.3-0.9,3.4
			l0.7,1.3c-1,0.3-1.9,0.5-2.7,0.5c-0.8-0.1-1.9-0.3-3.2-0.6C59.7,31.6,57,31,54,31l-0.2,0c-4.4,0-11.9,0.5-13.6,2.8
			c-0.2,0.3-0.5,0.7-0.8,1c-0.4-0.1-0.9-0.1-1.4-0.2c-1.4-0.2-3.4-0.5-4.1-0.9c-0.6-0.3-1.6-1-2.7-1.6l0.6-1.1
			c0.7-1.2,0.3-2.7-0.9-3.4l-5.3-3.2c-0.4-0.2-0.8-0.4-1.3-0.4c-0.9,0-1.7,0.5-2.2,1.3l-13,23.1c-0.7,1.2-0.3,2.7,0.9,3.4l5.3,3.2
			c0.4,0.2,0.8,0.4,1.3,0.4c0.9,0,1.7-0.5,2.2-1.3l1-1.9l0.9,1.1c0.1,0.2,1,1.3,2.2,2.8l-0.4,0.5c-1.3,1.8-0.9,4.6,1,6.2
			c0.8,0.6,1.7,1,2.6,1.1c-0.1,1.5,0.5,3,1.8,4.1c0.9,0.7,1.9,1.1,3,1.1c0.3,0,0.5,0,0.8-0.1c0.2,1,0.8,1.9,1.7,2.7
			c0.9,0.7,1.9,1.1,3,1.1c0.4,0,0.9-0.1,1.3-0.2c0.3,0.9,0.8,1.7,1.6,2.4c0.9,0.7,1.9,1.1,3,1.1c1.3,0,2.4-0.6,3.1-1.6l0.7-0.9
			c2.7,0.9,4.4,1.3,4.8,1.3c0.3,0.1,1.4,0.3,2.7,0.3c1,0,2.2-0.2,3.1-0.7c1.4-0.8,2.4-2,3-2.9c0.9,0,2.3,0,3.4-0.7
			c1.4-0.9,1.8-2.5,2-3.6c1,0,2.3-0.3,3.2-1c1.3-1,1.7-2.4,1.8-3.5c1.6,0.1,3.5-0.3,4.6-2.3c0.8-1.5,0.8-3,0-4.4
			c0.6-0.4,1.4-0.9,2.2-1.6c0.5-0.5,0.9-0.9,1.2-1.2c0.3-0.3,0.6-0.7,1-1l1,1.7c0.4,0.8,1.3,1.3,2.2,1.3c0.4,0,0.9-0.1,1.3-0.4
			l5.3-3.2C89.9,51.1,90.3,49.6,89.7,48.4z M69.3,29.7l5.2-3.2l13,23.1l-5.2,3.2L69.3,29.7z M76.3,51.6c-0.3,0.3-0.6,0.7-1.1,1.1
			c-0.9,0.8-1.7,1.3-2.2,1.5c0,0,0,0,0,0l-1.3-1.1l0,0c-0.1-0.1-1.2-1-3.7-2.8c-1.7-1.2-3.9-2.8-6.8-4.8c-0.4-0.3-1.6-1.1-1.8-1.2
			c-4.3-2.7-9.6-5.3-9.8-5.5c-0.2-0.1-0.4-0.1-0.6-0.1c-0.1,0-0.3,0-0.4,0.1l-3.3,1.1c-0.3,0.1-0.5,0.3-0.7,0.6c0,0-2.9,4.7-7.2,5.1
			c-0.2,0-0.4,0-0.6,0c-0.4,0-0.6-0.1-0.6-0.1c0,0-0.1-0.4,0.2-1.4c0.9-1.7,5.4-8.1,5.7-8.5c0.1-0.1,0.1-0.2,0.2-0.3
			c0.6-0.8,5.2-1.7,11.6-1.7l0.2,0c2.7,0,5.1,0.6,7.3,1.1c1.4,0.3,2.5,0.6,3.6,0.7c1.3,0.1,2.8-0.2,4.2-0.8l8.8,15.6
			C77.8,50.2,76.7,51.2,76.3,51.6z M16.7,52.8l-5.2-3.2l12.9-23l5.2,3.2L16.7,52.8z M43.5,72.9c-0.3,0.5-0.8,0.5-1.1,0.5
			c-0.5,0-0.9-0.2-1.3-0.5c-0.6-0.5-0.9-1.2-0.9-1.9c0-0.3,0.1-0.6,0.3-0.8c0,0,0,0,0,0l0.2-0.3l0.8-1.1l1.6-2.2
			c0.3-0.5,0.8-0.5,1.1-0.5c0.5,0,0.9,0.2,1.3,0.5c0.9,0.7,1.2,2,0.6,2.7l-0.9,1.2l-1.6,2.1L43.5,72.9z M36.6,70.2
			c-0.5,0-0.9-0.2-1.3-0.5c-0.6-0.5-0.9-1.1-0.9-1.7c0-0.2,0-0.4,0.1-0.6c0-0.1,0.1-0.3,0.2-0.4l0.9-1.2L39,61
			c0.1-0.1,0.2-0.2,0.3-0.3c0.3-0.2,0.6-0.2,0.8-0.2c0.5,0,0.9,0.2,1.3,0.5c0.9,0.7,1.2,2,0.6,2.7l-2.9,4l-1.4,2
			c0,0-0.1,0.1-0.1,0.1C37.3,70.1,36.8,70.2,36.6,70.2z M29.1,63.6c0-0.1,0.1-0.2,0.2-0.3l1.3-1.8l0.1-0.1l1.1-1.5c0,0,0,0,0,0l3-4
			c0.3-0.5,0.8-0.5,1.1-0.5c0.5,0,0.9,0.2,1.3,0.5c0.9,0.7,1.2,2,0.6,2.7l-0.2,0.3c-0.2,0.2-0.4,0.4-0.5,0.6l-3.5,4.8l-0.9,1.2
			c-0.1,0.2-0.3,0.4-0.4,0.6c-0.1,0.1-0.2,0.2-0.3,0.2c-0.3,0.2-0.6,0.2-0.8,0.2c-0.5,0-0.9-0.2-1.3-0.5
			C29.1,65.4,28.8,64.3,29.1,63.6z M24.8,58.2C24.8,58.2,24.8,58.1,24.8,58.2l1.5-2.1l0.2-0.3c0.3-0.5,0.8-0.5,1.1-0.5
			c0.5,0,0.9,0.2,1.3,0.5c0.9,0.7,1.2,2,0.6,2.7c0,0,0,0,0,0L29,59.4l-0.2,0.3l-0.9,1.2c-0.2,0.3-0.4,0.4-0.6,0.5
			c-0.2,0.1-0.3,0.1-0.5,0.1c-0.5,0-0.9-0.2-1.3-0.5C24.6,60.1,24.3,58.9,24.8,58.2z M72.5,59.4c-0.7,1.3-2.1,1.1-2.9,0.9l-11.9-7.2
			c-0.6-0.4-1.4-0.2-1.7,0.4c-0.4,0.6-0.2,1.4,0.4,1.7L67.6,62c0.1,0.6,0,1.7-0.8,2.4c-0.5,0.4-1.6,0.5-2.4,0.4L54.3,59
			c-0.6-0.4-1.4-0.1-1.7,0.5c-0.3,0.6-0.1,1.4,0.5,1.7l9.7,5.6c-0.1,0.7-0.3,1.6-0.9,2c-0.5,0.3-1.8,0.3-2.4,0.2c0,0-0.1,0-0.1,0
			L50.8,65c-0.6-0.3-1.4,0-1.7,0.6c-0.3,0.6,0,1.4,0.6,1.7l7.5,3.6c-0.4,0.5-0.9,1-1.6,1.4c-1.2,0.6-3.3,0.3-4.1,0.1
			c0,0-0.1,0-0.1,0c0,0-1.3-0.2-3.6-1l0.4-0.5c1.3-1.8,0.9-4.6-1-6.2c-0.7-0.6-1.5-0.9-2.3-1c0.3-1.6-0.3-3.4-1.7-4.6
			c-0.7-0.6-1.6-1-2.5-1.1c0.1-1.5-0.5-3-1.8-4c-0.9-0.7-1.9-1.1-3-1.1c-1.3,0-2.4,0.6-3.2,1.6l-0.7,1c-0.3-0.6-0.7-1.1-1.3-1.6
			c-0.9-0.7-1.9-1.1-3-1.1c-1.2,0-2.2,0.5-3,1.4c-1.1-1.4-1.8-2.3-1.9-2.3c0,0,0,0,0-0.1l-1.5-1.7L30,34.3c1,0.7,2.1,1.3,2.7,1.6
			c1.1,0.6,3.1,0.9,5,1.2c0,0,0.1,0,0.1,0c-1.4,2-3,4.2-3.8,5.8c0,0.1-0.1,0.1-0.1,0.2c-0.3,1.1-0.6,2.6,0.2,3.7
			c0.5,0.7,1.4,1.1,2.6,1.1c0.3,0,0.5,0,0.8,0c4.7-0.4,7.9-4.5,8.8-5.9l2.4-0.8c1.4,0.7,5.8,3,9.3,5.2c0.1,0.1,1.5,1,1.6,1.1
			c3,2.1,5.4,3.8,7,5c1.1,0.9,2.3,1.8,3.2,2.5c0,0,0,0,0,0l1.8,1.5C73.1,57.8,72.8,58.8,72.5,59.4z"/>
	</g>
</g>
<path class="st0" d="z"/>
</svg>
