<?xml version="1.0" encoding="utf-8"?>
<!-- Generator: $$$/GeneralStr/196=Adobe Illustrator 27.6.0, SVG Export Plug-In . SVG Version: 6.00 Build 0)  -->
<svg version="1.1" id="Untitled-_x25_u9801_x25_u9762_x25_201"
	 xmlns="http://www.w3.org/2000/svg" xmlns:xlink="http://www.w3.org/1999/xlink" x="0px" y="0px" viewBox="0 0 100 100"
	 style="enable-background:new 0 0 100 100;" xml:space="preserve">
<style type="text/css">
	.st0{fill:none;}
	.st1{fill:none;stroke:#A394E5;stroke-width:2;}
	.st2{fill:none;stroke:#A394E5;}
</style>
<path class="st0" d="z"/>
<g>
	<g>
		<g>
			<path class="st1" d="M40.3,74.2h20.2c0.1-1.9,0.6-4.4,1.8-6c7.5-9.7,7.9-18.9,7.9-19.5c0-11-8.9-19.9-19.8-19.9
				c-10.9,0-19.8,8.9-19.8,19.9c0,0.7,0.5,9.9,7.9,19.5C39.8,69.8,40.2,72.3,40.3,74.2z"/>
			<path class="st1" d="M35.9,48.5c0-8,6.5-14.6,14.5-14.6l0,0"/>
			<g>
				<path class="st1" d="M45.2,74.1l-3.9-21.9l0,0"/>
				<path class="st1" d="M55.7,74.1l3.9-21.9l0,0"/>
			</g>
			<path class="st1" d="M41.4,53.6l3,1.5l3-1.5l3,1.5l3-1.5l3,1.5l3-1.5l0,0"/>
			<g>
				<path class="st1" d="M37.6,74.4h25.7l0,0"/>
				<path class="st1" d="M37.6,79.5h25.7l0,0"/>
				<path class="st1" d="M42.9,84.5H58l0,0"/>
			</g>
		</g>
		<g>
			<path class="st1" d="M50.4,15.6l0,9.4l0,0"/>
		</g>
		<g>
			<path class="st1" d="M26.3,25.3l6.6,6.7l0,0"/>
		</g>
		<g>
			<path class="st1" d="M16.1,49.3l9.4,0l0,0"/>
		</g>
		<g>
			<path class="st1" d="M25.7,73.6l6.6-6.7l0,0"/>
		</g>
		<g>
			<path class="st1" d="M73.7,74.2l-6.6-6.7l0,0"/>
		</g>
		<g>
			<path class="st1" d="M83.9,50.2l-9.3,0l0,0"/>
		</g>
		<g>
			<path class="st1" d="M74.3,25.9l-6.6,6.7l0,0"/>
		</g>
	</g>
	<path class="st2" d="M0,0"/>
	<path class="st2" d="M100,100"/>
</g>
<path class="st0" d="z"/>
</svg>
